<?xml version="1.0" encoding="utf-8"?>
<!-- Generator: Adobe Illustrator 24.1.0, SVG Export Plug-In . SVG Version: 6.00 Build 0)  -->
<svg version="1.1" id="_x31__x2C_5" xmlns="http://www.w3.org/2000/svg" xmlns:xlink="http://www.w3.org/1999/xlink" x="0px"
	 y="0px" viewBox="0 0 512 512" style="enable-background:new 0 0 512 512;" xml:space="preserve">
<style type="text/css">
	.st0{fill:#A4AFC1;}
	.st1{fill:#0C0C0E;}
	.st2{fill:#2FDF84;}
	.st3{fill:#2A241E;}
	.st4{fill:#00B871;}
	.st5{fill:#FFFFFF;}
</style>
<path class="st0" d="M334.7,54.7l10.1-10.1l20.1,20.1l-10.1,10.1L334.7,54.7z"/>
<path class="st0" d="M392.5,112.5l10.1-10.1l20.1,20.1l-10.1,10.1L392.5,112.5z"/>
<path class="st0" d="M389.9,64.7L410,44.6l10.1,10.1L400,74.8L389.9,64.7z"/>
<circle class="st1" cx="234.7" cy="234.7" r="138.7"/>
<g>
	<path class="st2" d="M138.7,234.7h96l-43.6-61.8c-2.5-3.5-6.6-5.8-11.3-5.8c-5.5,0-10.2,3.2-12.4,7.7L138.7,234.7z"/>
	<path class="st2" d="M234.7,138.7v96l61.8-43.6c3.5-2.5,5.8-6.6,5.8-11.3c0-5.5-3.2-10.2-7.7-12.4L234.7,138.7z"/>
	<path class="st2" d="M234.7,330.7v-96l-61.8,43.6c-3.5,2.5-5.8,6.6-5.8,11.3c0,5.5,3.2,10.2,7.7,12.4L234.7,330.7z"/>
	<path class="st2" d="M330.7,234.7h-96l43.6,61.8c2.5,3.5,6.6,5.8,11.3,5.8c5.5,0,10.2-3.2,12.4-7.7L330.7,234.7z"/>
</g>
<path class="st1" d="M362.7,416c-29.5,0-53.3-23.9-53.3-53.3v-88.9c0-11.8,9.6-21.3,21.3-21.3h64c11.8,0,21.3,9.6,21.3,21.3v88.9
	C416,392.1,392.1,416,362.7,416z"/>
<path class="st3" d="M128,234.7c0-71.2,53.6-129.7,122.7-137.7c-5.3-0.6-10.6-1-16-1C158.1,96,96,158.1,96,234.7
	s62.1,138.7,138.7,138.7c5.4,0,10.7-0.4,16-1C181.6,364.4,128,305.8,128,234.7z"/>
<path class="st4" d="M191.1,172.9c-2.5-3.5-6.6-5.8-11.3-5.8c-5.5,0-10.2,3.2-12.4,7.7l-28.7,59.8h32l25.9-53.9L191.1,172.9z"/>
<path class="st4" d="M266.7,154l-32-15.4v96l32-22.6V154z"/>
<path class="st4" d="M206.8,301.9c-4.6-2.2-7.7-6.9-7.7-12.4c0-4.7,2.3-8.8,5.8-11.3l29.8-21v-22.6l-61.8,43.6
	c-3.5,2.5-5.8,6.6-5.8,11.3c0,5.5,3.2,10.2,7.7,12.4l59.8,28.7v-15.4L206.8,301.9z"/>
<path class="st4" d="M266.7,234.7h-32l43.6,61.8c2.5,3.5,6.6,5.8,11.3,5.8c5.5,0,10.2-3.2,12.4-7.7l2.8-5.9L266.7,234.7z"/>
<path class="st3" d="M341.3,362.7v-88.9c0-11.8,9.6-21.3,21.3-21.3h-32c-11.8,0-21.3,9.6-21.3,21.3v88.9c0,29.5,23.9,53.3,53.3,53.3
	c5.6,0,10.9-1.1,16-2.7C357.1,406.5,341.3,386.5,341.3,362.7z"/>
<path class="st5" d="M362.7,426.7c-35.3,0-64-28.7-64-64v-88.9c0-17.6,14.4-32,32-32h64c17.6,0,32,14.4,32,32v88.9
	C426.7,398,398,426.7,362.7,426.7z M330.7,263.1c-5.9,0-10.7,4.8-10.7,10.7v88.9c0,23.5,19.1,42.7,42.7,42.7
	c23.5,0,42.7-19.1,42.7-42.7v-88.9c0-5.9-4.8-10.7-10.7-10.7H330.7z"/>
<path class="st5" d="M334.2,288h56.9v21.3h-56.9V288z"/>
<path class="st5" d="M341.3,362.7H384V384h-42.7V362.7z"/>
<path class="st5" d="M352,270.2h21.3v56.9H352V270.2z"/>
<path class="st5" d="M234.7,384c-82.3,0-149.3-67-149.3-149.3s67-149.3,149.3-149.3c70.4,0,131.8,49.9,146.1,118.7l-20.9,4.3
	c-12.3-59-64.9-101.7-125.2-101.7c-70.6,0-128,57.4-128,128s57.4,128,128,128c9.3,0,18.2-1,26.5-2.8l4.8,20.8
	C256.1,382.9,245.6,384,234.7,384z"/>
<path class="st5" d="M234.7,245.3h-96c-3.7,0-7.1-1.9-9-5c-1.9-3.1-2.2-7-0.6-10.3l28.7-59.8c4-8.3,12.7-13.8,22-13.8
	c8,0,15.4,3.9,20,10.3l43.6,61.8c2.3,3.3,2.6,7.5,0.8,11.1C242.3,243.1,238.6,245.3,234.7,245.3L234.7,245.3z M155.6,224h58.5
	l-31.7-44.9c-0.6-0.8-4.6-1.2-5.3,0.4L155.6,224z"/>
<path class="st5" d="M254.4,281.2l-28.4-40.4c-2.3-3.3-2.6-7.5-0.7-11.1c1.8-3.5,5.5-5.7,9.5-5.7h41v21.3h-20.4l16.6,23.6
	L254.4,281.2z"/>
<path class="st5" d="M234.7,245.3c-1.7,0-3.4-0.4-4.9-1.2c-3.5-1.8-5.8-5.5-5.8-9.5v-96c0-3.7,1.9-7.1,5-9c3.1-1.9,7-2.2,10.3-0.6
	l59.8,28.7c8.4,4,13.8,12.7,13.8,22c0,7.9-3.9,15.4-10.3,20l-61.8,43.6C239,244.7,236.8,245.3,234.7,245.3z M245.3,155.6v58.5
	l44.9-31.7c0.8-0.6,1.3-1.5,1.3-2.6c0-1.5-0.9-2.4-1.7-2.8L245.3,155.6z"/>
<path class="st5" d="M234.7,341.3c-1.6,0-3.2-0.3-4.6-1.1l-59.8-28.7c-8.4-4-13.8-12.7-13.8-22c0-7.9,3.9-15.4,10.3-20l61.8-43.6
	c3.3-2.3,7.5-2.6,11.1-0.8c3.5,1.8,5.8,5.5,5.8,9.5v96c0,3.7-1.9,7.1-5,9C238.6,340.8,236.6,341.3,234.7,341.3L234.7,341.3z
	 M224,255.2l-44.9,31.7c-0.8,0.6-1.3,1.5-1.3,2.6c0,1.5,0.9,2.4,1.7,2.8l44.5,21.4V255.2z"/>
</svg>
