<?xml version="1.0" encoding="utf-8"?>
<!-- Generator: Adobe Illustrator 24.1.0, SVG Export Plug-In . SVG Version: 6.00 Build 0)  -->
<svg version="1.1" id="_x31__x2C_5" xmlns="http://www.w3.org/2000/svg" xmlns:xlink="http://www.w3.org/1999/xlink" x="0px"
	 y="0px" viewBox="0 0 512 512" style="enable-background:new 0 0 512 512;" xml:space="preserve">
<style type="text/css">
	.st0{fill:#A4AFC1;}
	.st1{fill:#2FDF84;}
	.st2{fill:#00B871;}
	.st3{fill:#0C0C0E;}
	.st4{fill:#2A241E;}
	.st5{fill:#FFFFFF;}
</style>
<path class="st0" d="M483.6,317.4H512v14.2h-28.4V317.4z"/>
<path class="st0" d="M455.1,267.6h14.2V296h-14.2V267.6z"/>
<path class="st0" d="M455.1,349.4h14.2v28.4h-14.2V349.4z"/>
<path class="st1" d="M416,291.6l-160,67.6L96,291.6l160-67.7L416,291.6z"/>
<path class="st2" d="M128,291.6l144-60.9l-16-6.8L96,291.6l160,67.6l16-6.8L128,291.6z"/>
<path class="st3" d="M416,291.6v56.9L256,416v-56.9L416,291.6z"/>
<path class="st3" d="M256,359.1V416L96,348.4v-56.9L256,359.1z"/>
<path class="st3" d="M181.3,170.7L256,96l74.7,74.7h-49.8v96c0,3.9-3.2,7.1-7.1,7.1h-35.6c-3.9,0-7.1-3.2-7.1-7.1v-96H181.3z"/>
<g>
	<path class="st4" d="M288,359.1l128-54v-13.5l-160,67.6V416l32-13.5V359.1z"/>
	<path class="st4" d="M128,348.4v-43.4l-32-13.5v56.9L256,416v-13.5L128,348.4z"/>
	<path class="st4" d="M256,96l-74.7,74.7h32L272,112L256,96z"/>
	<path class="st4" d="M263.1,266.7v-96h-32v96c0,3.9,3.2,7.1,7.1,7.1h32C266.3,273.8,263.1,270.6,263.1,266.7z"/>
</g>
<path class="st5" d="M256,369.8c-1.4,0-2.8-0.3-4.2-0.8l-160-67.6c-3.9-1.7-6.5-5.5-6.5-9.8c0-4.3,2.6-8.2,6.5-9.8l88.9-37.5
	l8.3,19.7l-65.6,27.7l132.6,56l132.6-56L323,263.8l8.3-19.7l88.9,37.5c3.9,1.7,6.5,5.5,6.5,9.8c0,4.3-2.6,8.2-6.5,9.8l-160,67.6
	C258.8,369.5,257.4,369.8,256,369.8L256,369.8z"/>
<path class="st5" d="M256,426.7c-1.4,0-2.8-0.3-4.2-0.8l-160-67.6c-3.9-1.7-6.5-5.5-6.5-9.8v-56.9h21.3v49.8L256,404.4l149.3-63.1
	v-49.8h21.3v56.9c0,4.3-2.6,8.2-6.5,9.8l-160,67.6C258.8,426.4,257.4,426.7,256,426.7z"/>
<path d="M245.3,359.1h21.3V416h-21.3V359.1z"/>
<path class="st5" d="M273.8,284.4h-35.6c-9.8,0-17.8-8-17.8-17.8v-85.3h-39.1c-4.3,0-8.2-2.6-9.9-6.6c-1.6-4-0.7-8.6,2.3-11.6
	l74.7-74.7c4.2-4.2,10.9-4.2,15.1,0l74.7,74.7c3,3,4,7.6,2.3,11.6c-1.6,4-5.5,6.6-9.9,6.6h-39.1v85.3
	C291.6,276.5,283.6,284.4,273.8,284.4L273.8,284.4z M241.8,263.1h28.4v-92.4c0-5.9,4.8-10.7,10.7-10.7h24L256,111.1L207.1,160h24
	c5.9,0,10.7,4.8,10.7,10.7V263.1z"/>
</svg>
