<?xml version="1.0" encoding="utf-8"?>
<!-- Generator: Adobe Illustrator 24.1.0, SVG Export Plug-In . SVG Version: 6.00 Build 0)  -->
<svg version="1.1" id="_x31__x2C_5" xmlns="http://www.w3.org/2000/svg" xmlns:xlink="http://www.w3.org/1999/xlink" x="0px"
	 y="0px" viewBox="0 0 512 512" style="enable-background:new 0 0 512 512;" xml:space="preserve">
<style type="text/css">
	.st0{fill:#A4AFC1;}
	.st1{fill:#2FDF84;}
	.st2{fill:#0C0C0E;}
	.st3{fill:#00B871;}
	.st4{fill:#2A241E;}
	.st5{fill:#FFFFFF;}
</style>
<path class="st0" d="M462.2,85.3c-11.8,0-21.3-9.6-21.3-21.3s9.6-21.3,21.3-21.3s21.3,9.6,21.3,21.3S474,85.3,462.2,85.3z
	 M462.2,56.9c-3.9,0-7.1,3.2-7.1,7.1c0,3.9,3.2,7.1,7.1,7.1s7.1-3.2,7.1-7.1C469.3,60.1,466.1,56.9,462.2,56.9z"/>
<path class="st1" d="M337.8,96l-7.1,17.6c-4.3,10.8-14.8,17.9-26.3,17.9h-96.7c-11.5,0-22-7.1-26.3-17.9L174.2,96H337.8z"/>
<path class="st1" d="M278.6,131.6l-15.5,42.7h-14.2l-15.5-42.7H278.6z"/>
<g>
	<path class="st2" d="M359.1,241.8l-103.1,32l-103.1-32l103.1-32L359.1,241.8z"/>
	<path class="st2" d="M359.1,241.8V384L256,416V273.8L359.1,241.8z"/>
	<path class="st2" d="M256,273.8V416l-103.1-32V241.8L256,273.8z"/>
</g>
<path class="st3" d="M213.3,113.6L206.2,96h-32l7.1,17.6c4.3,10.8,14.8,17.9,26.3,17.9h32C228.1,131.6,217.6,124.4,213.3,113.6z"/>
<path class="st4" d="M288,273.8l71.1-22.1v-9.9l-103.1,32V416l32-9.9V273.8z"/>
<path class="st4" d="M184.9,384V251.7l-32-9.9V384L256,416v-9.9L184.9,384z"/>
<path class="st5" d="M85.3,85.3h341.3v21.3H85.3V85.3z"/>
<path class="st5" d="M304.3,142.2h-96.6c-16.1,0-30.3-9.7-36.3-24.6l-7.1-17.7l19.8-7.9l7.1,17.7c2.7,6.8,9.2,11.2,16.5,11.2h96.6
	c7.3,0,13.8-4.4,16.5-11.2l7.1-17.7l19.8,7.9l-7.1,17.7C334.6,132.6,320.4,142.2,304.3,142.2z"/>
<path class="st5" d="M263.1,184.9h-14.2c-4.5,0-8.5-2.8-10-7l-14.2-39.1l20.1-7.3l11.3,31.1l11.3-31.1l20.1,7.3l-14.2,39.1
	C271.6,182.1,267.6,184.9,263.1,184.9L263.1,184.9z"/>
<path class="st5" d="M256,284.4c-1.1,0-2.1-0.2-3.2-0.5l-103.1-32c-4.5-1.4-7.5-5.5-7.5-10.2s3-8.8,7.5-10.2l103.1-32
	c2.1-0.6,4.3-0.6,6.3,0l103.1,32c4.5,1.4,7.5,5.5,7.5,10.2s-3,8.8-7.5,10.2l-103.1,32C258.1,284.3,257.1,284.4,256,284.4z
	 M188.9,241.8l67.1,20.8l67.1-20.8L256,220.9L188.9,241.8z"/>
<path class="st5" d="M256,426.7c-1.1,0-2.1-0.2-3.2-0.5l-103.1-32c-4.5-1.4-7.5-5.5-7.5-10.2V241.8h21.3v134.4l92.4,28.7l92.4-28.7
	V241.8h21.3V384c0,4.7-3,8.8-7.5,10.2l-103.1,32C258.1,426.5,257.1,426.7,256,426.7z"/>
<path class="st5" d="M245.3,273.8h21.3V416h-21.3V273.8z"/>
</svg>
