<?xml version="1.0" encoding="utf-8"?>
<!-- Generator: Adobe Illustrator 24.1.0, SVG Export Plug-In . SVG Version: 6.00 Build 0)  -->
<svg version="1.1" id="_x31__x2C_5" xmlns="http://www.w3.org/2000/svg" xmlns:xlink="http://www.w3.org/1999/xlink" x="0px"
	 y="0px" viewBox="0 0 512 512" style="enable-background:new 0 0 512 512;" xml:space="preserve">
<style type="text/css">
	.st0{fill:#0C0C0E;}
	.st1{fill:#2FDF84;}
	.st2{fill:#2A241E;}
	.st3{fill:#00B871;}
	.st4{fill:#FFFFFF;}
</style>
<path class="st0" d="M403.8,298.3c4.7,4.5,5.8,11.5,2.6,17.3l-23.7,40.9c-3.2,5.7-10,8.2-16.3,6.3l-31.3-9.9
	c-10.3,8.5-22,15.4-34.8,20.2l-7.2,32.1c-1.4,6.3-7,10.9-13.5,10.9h-47.3c-6.5,0-12.1-4.6-13.5-10.9l-7.2-32.1
	c-12.8-4.7-24.5-11.7-34.8-20.2l-31.3,9.9c-6.3,1.9-13.1-0.6-16.3-6.3l-23.7-40.9c-3.2-5.7-2.1-12.8,2.6-17.3l24.1-22.1
	c-0.9-6.5-1.5-13.4-1.5-20.2s0.6-13.6,1.5-20.2l-24.1-22.1c-4.7-4.5-5.8-11.5-2.6-17.3l23.7-40.9c3.2-5.7,10-8.2,16.3-6.3l31.3,9.9
	c10.3-8.5,22-15.4,34.8-20.2l7.2-32.1c1.4-6.3,7-10.9,13.5-10.9h47.3c6.5,0,12.1,4.6,13.5,10.9l7.2,32.1
	c12.8,4.7,24.5,11.7,34.8,20.2l31.3-9.9c6.3-1.9,13.1,0.6,16.3,6.3l23.7,40.9c3.2,5.7,2.1,12.8-2.6,17.3l-24.1,22.1
	c1,6.5,1.5,13.4,1.5,20.2s-0.6,13.6-1.5,20.2L403.8,298.3z"/>
<path class="st1" d="M330.7,206.2L256,231.1l-74.7-24.9l74.7-24.9L330.7,206.2z"/>
<path class="st1" d="M330.7,206.2v99.6L256,330.7v-99.6L330.7,206.2z"/>
<path class="st1" d="M256,231.1v99.6l-74.7-24.9v-99.6L256,231.1z"/>
<g>
	<path class="st2" d="M367.2,159.2l14.7-4.7c-3.4-4.9-9.6-7-15.4-5.2l-8.9,2.8C360.9,154.3,364.1,156.6,367.2,159.2z"/>
	<path class="st2" d="M161.3,356.5l-23.7-40.9c-3.2-5.7-2.1-12.8,2.6-17.3l24.1-22.1c-1-6.5-1.5-13.4-1.5-20.2s0.6-13.6,1.5-20.2
		l-24.1-22.1c-4.7-4.5-5.8-11.5-2.6-17.3l23.7-40.9c0.2-0.4,0.6-0.7,0.9-1l-16.6-5.2c-6.3-1.9-13.1,0.6-16.3,6.3l-23.7,40.9
		c-3.2,5.7-2.1,12.8,2.6,17.3l24.1,22.1c-1,6.5-1.5,13.4-1.5,20.2s0.6,13.6,1.5,20.2l-24.1,22.1c-4.7,4.5-5.8,11.5-2.6,17.3
		l23.7,40.9c3.2,5.7,10,8.2,16.3,6.3l16.6-5.2C161.8,357.1,161.5,356.8,161.3,356.5L161.3,356.5z"/>
	<path class="st2" d="M208.8,159.2c10.3-8.5,22-15.4,34.8-20.2l7.2-32.1c1.4-6.3,7-10.9,13.5-10.9h-32c-6.5,0-12.1,4.6-13.5,10.9
		l-7.2,32.1c-9,3.3-17.4,7.8-25.2,13.1L208.8,159.2z"/>
	<path class="st2" d="M367.2,352.8c-3.1,2.5-6.3,4.8-9.6,7.1l8.9,2.8c5.8,1.8,12-0.4,15.4-5.2L367.2,352.8z"/>
	<path class="st2" d="M250.9,405.1l-7.2-32.1c-12.8-4.7-24.5-11.7-34.8-20.2l-22.4,7.1c7.8,5.3,16.2,9.8,25.2,13.1l7.2,32.1
		c1.4,6.3,7,10.9,13.5,10.9h32C257.8,416,252.2,411.4,250.9,405.1L250.9,405.1z"/>
</g>
<path class="st3" d="M288,231.1l42.7-14.2v-10.7L256,231.1v99.6l32-10.7V231.1z"/>
<path class="st3" d="M213.3,305.8v-88.9l-32-10.7v99.6l74.7,24.9V320L213.3,305.8z"/>
<path class="st4" d="M256,241.8c-1.1,0-2.3-0.2-3.4-0.6L178,216.3c-4.4-1.5-7.3-5.5-7.3-10.1s2.9-8.7,7.3-10.1l74.7-24.9
	c2.2-0.7,4.6-0.7,6.8,0l74.7,24.9c4.3,1.5,7.3,5.5,7.3,10.1s-2.9,8.7-7.3,10.1l-74.7,24.9C258.3,241.6,257.1,241.8,256,241.8z
	 M215.1,206.2l40.9,13.6l40.9-13.6L256,192.6L215.1,206.2z"/>
<path class="st4" d="M256,341.3c-1.1,0-2.3-0.2-3.4-0.6L178,315.9c-4.4-1.5-7.3-5.5-7.3-10.1v-99.6H192v91.9l64,21.3l64-21.3v-91.9
	h21.3v99.6c0,4.6-2.9,8.7-7.3,10.1l-74.7,24.9C258.3,341.1,257.1,341.3,256,341.3z"/>
<path class="st4" d="M279.7,426.7h-47.3c-11.5,0-21.4-7.9-23.9-19.2l-6-26.6c-9.8-4.1-19.1-9.5-27.8-16.1l-25.9,8.2
	c-11.1,3.4-23.2-1.3-28.8-11.2l-23.6-40.8c-5.6-10.1-3.7-22.5,4.6-30.4l20.1-18.5c-0.6-5.4-0.9-10.8-0.9-16.1
	c0-5.3,0.3-10.7,0.9-16.1l-20-18.4c-8.4-7.9-10.3-20.3-4.7-30.3l23.7-41c5.5-9.8,17.6-14.6,28.7-11.1l26,8.2
	c8.7-6.6,18-12,27.8-16.1l6-26.7c2.5-11.3,12.4-19.2,23.9-19.2h47.3c11.5,0,21.4,7.9,23.9,19.2l6,26.6c9.8,4.1,19.1,9.5,27.8,16.1
	l25.9-8.2c11.1-3.5,23.2,1.3,28.8,11.2l23.6,40.8c5.6,10.1,3.7,22.5-4.6,30.4L391,239.9c0.6,5.4,0.9,10.8,0.9,16.1
	c0,5.3-0.3,10.7-0.9,16.1l20,18.4l0.1,0.1c8.3,7.8,10.2,20.3,4.7,30.2l-23.7,41c-5.5,9.8-17.6,14.6-28.7,11.1l-26-8.2
	c-8.7,6.6-18,12-27.8,16.1l-6,26.7C301,418.8,291.2,426.7,279.7,426.7L279.7,426.7z M176.8,342.2c2.4,0,4.8,0.8,6.8,2.4
	c9.7,8,20.4,14.2,31.7,18.4c3.4,1.3,5.9,4.1,6.7,7.7l7.2,32.1c0.3,1.5,1.6,2.5,3.1,2.5h47.3c1.5,0,2.8-1.1,3.1-2.5l7.2-32.1
	c0.8-3.5,3.3-6.4,6.7-7.7c11.3-4.2,21.9-10.4,31.7-18.4c2.8-2.3,6.5-3,10-1.9l31.3,9.9c1.5,0.5,3.1-0.1,3.8-1.3l23.7-41
	c0.7-1.3,0.5-3-0.7-4.1l-24-22.1c-2.6-2.4-3.9-5.9-3.3-9.4c0.9-6.3,1.4-12.5,1.4-18.6s-0.5-12.3-1.4-18.6c-0.5-3.5,0.7-7,3.3-9.4
	l24.1-22.1c1.1-1,1.4-2.8,0.6-4.2l-23.6-40.8c-0.8-1.4-2.3-1.9-3.9-1.4l-31.3,9.9c-3.5,1.1-7.2,0.4-10-1.9
	c-9.7-8-20.4-14.2-31.7-18.4c-3.4-1.3-5.9-4.1-6.7-7.7l-7.2-32.1c-0.4-1.5-1.7-2.5-3.1-2.5h-47.3c-1.5,0-2.8,1.1-3.1,2.5l-7.2,32.1
	c-0.8,3.5-3.3,6.4-6.7,7.7c-11.3,4.2-21.9,10.4-31.7,18.4c-2.8,2.3-6.5,3-10,1.9l-31.3-9.9c-1.5-0.5-3.1,0.1-3.8,1.3l-23.7,41
	c-0.7,1.3-0.4,3,0.7,4.1l24,22c2.6,2.4,3.9,5.9,3.3,9.4c-0.9,6.3-1.4,12.5-1.4,18.6c0,6.1,0.5,12.3,1.4,18.6c0.5,3.5-0.7,7-3.3,9.4
	l-24.1,22.1c-1.1,1-1.4,2.8-0.6,4.2l23.6,40.8c0.8,1.4,2.3,1.9,3.9,1.4l31.3-9.9C174.7,342.3,175.8,342.2,176.8,342.2L176.8,342.2z"
	/>
<path class="st4" d="M245.3,231.1h21.3v99.6h-21.3V231.1z"/>
</svg>
